<svg width="200" height="200" viewBox="0 0 24 24" fill="none" xmlns="http://www.w3.org/2000/svg">
    <!-- Outer circle with Brand Navy -->
    <circle cx="12" cy="12" r="10" fill="#002C77"/>
    <!-- Inner icon in White -->
    <path d="M12 4C8.13 4 5 7.13 5 11C5 16.25 12 22 12 22C12 22 19 16.25 19 11C19 7.13 15.87 4 12 4ZM12 13.5C10.62 13.5 9.5 12.38 9.5 11C9.5 9.62 10.62 8.5 12 8.5C13.38 8.5 14.5 9.62 14.5 11C14.5 12.38 13.38 13.5 12 13.5Z" fill="white"/>
    <!-- Center point with Brand Navy -->
    <path d="M12 9.5C11.17 9.5 10.5 10.17 10.5 11C10.5 11.83 11.17 12.5 12 12.5C12.83 12.5 13.5 11.83 13.5 11C13.5 10.17 12.83 9.5 12 9.5Z" fill="#002C77"/>
</svg>
