<svg width="512" height="512" viewBox="0 0 512 512" xmlns="http://www.w3.org/2000/svg">
    <!-- Transparent background handled by SVG -->
    
    <!-- Branding Color: #002C77 -->
    
    <!-- Kindr Icon: Pin with Heart -->
    <g transform="translate(256, 160) scale(12)" text-anchor="middle">
        <!-- Pin Outline -->
        <path d="M0 -10 C -5.5 -10, -10 -5.5, -10 0 C -10 5.5, 0 10, 0 10 C 0 10, 10 5.5, 10 0 C 10 -5.5, 5.5 -10, 0 -10 Z M 0 -7.5 C 4.1 -7.5, 7.5 -4.1, 7.5 0 C 7.5 3.3, 2.5 7.1, 0 8.8 C -2.5 7.1, -7.5 3.3, -7.5 0 C -7.5 -4.1, -4.1 -7.5, 0 -7.5 Z" fill="#002C77"/>
        <!-- Heart Outline inside -->
        <path d="M 0 -3.5 C -0.5 -4.5, -2.5 -4.5, -3.5 -3.5 C -4.5 -2.5, -4.5 -0.5, -3.5 0.5 L 0 4 L 3.5 0.5 C 4.5 -0.5, 4.5 -2.5, 3.5 -3.5 C 2.5 -4.5, 0.5 -4.5, 0 -3.5 Z M 0 -1 C 0.5 -2, 1.8 -2, 2.3 -1.4 C 2.8 -0.8, 2.8 0.2, 2.3 0.7 L 0 3 L -2.3 0.7 C -2.8 0.2, -2.8 -0.8, -2.3 -1.4 C -1.8 -2, -0.5 -2, 0 -1 Z" fill="#002C77" />
    </g>
    
    <!-- Text: KINDR -->
    <text x="256" y="380" font-family="'Inter', -apple-system, sans-serif" font-weight="700" font-size="78" fill="#002C77" text-anchor="middle" letter-spacing="4">KINDR</text>
    
    <!-- Slogan -->
    <text x="256" y="440" font-family="'Inter', -apple-system, sans-serif" font-weight="500" font-size="22" fill="#002C77" text-anchor="middle" letter-spacing="0.5">Stop Searching. Start Living.</text>
</svg>
